<svg width="35" height="18" fill="none" xmlns="http://www.w3.org/2000/svg"><path d="M24.531 5.875V2.281c0-.469.157-.937.547-1.328a1.885 1.885 0 0 1 1.328-.547c.469 0 .938.235 1.328.547l6.72 6.719c.312.39.546.86.546 1.328 0 .547-.234 1.016-.547 1.328l-6.719 6.719c-.39.39-.859.547-1.328.547-.547 0-1.015-.157-1.328-.547-.39-.313-.547-.781-.547-1.328v-3.594H.938c-.313 0-.547-.078-.704-.234C.078 11.734 0 11.5 0 11.187V6.814c0-.235.078-.47.234-.625a.99.99 0 0 1 .704-.313H24.53z" fill="#FA9125"/></svg>